<svg preserveAspectRatio="none" width="100%" height="100%" overflow="visible" style="display: block;" viewBox="0 0 668 250" fill="none" xmlns="http://www.w3.org/2000/svg">
<g id="pattern" clip-path="url(#clip0_0_6)">
<path id="pattern_2" d="M262 322C263.105 322 264 322.895 264 324C264 325.105 263.105 326 262 326C260.895 326 260 325.105 260 324C260 322.895 260.895 322 262 322ZM287 322C288.105 322 289 322.895 289 324C289 325.105 288.105 326 287 326C285.895 326 285 325.105 285 324C285 322.895 285.895 322 287 322ZM311 322C312.105 322 313 322.895 313 324C313 325.105 312.105 326 311 326C309.895 326 309 325.105 309 324C309 322.895 309.895 322 311 322ZM334 322C335.105 322 336 322.895 336 324C336 325.105 335.105 326 334 326C332.895 326 332 325.105 332 324C332 322.895 332.895 322 334 322ZM357 322C358.105 322 359 322.895 359 324C359 325.105 358.105 326 357 326C355.895 326 355 325.105 355 324C355 322.895 355.895 322 357 322ZM381 322C382.105 322 383 322.895 383 324C383 325.105 382.105 326 381 326C379.895 326 379 325.105 379 324C379 322.895 379.895 322 381 322ZM406 322C407.105 322 408 322.895 408 324C408 325.105 407.105 326 406 326C404.895 326 404 325.105 404 324C404 322.895 404.895 322 406 322ZM215 320C216.105 320 217 320.895 217 322C217 323.105 216.105 324 215 324C213.895 324 213 323.105 213 322C213 320.895 213.895 320 215 320ZM239 320C240.105 320 241 320.895 241 322C241 323.105 240.105 324 239 324C237.895 324 237 323.105 237 322C237 320.895 237.895 320 239 320ZM429 320C430.105 320 431 320.895 431 322C431 323.105 430.105 324 429 324C427.895 324 427 323.105 427 322C427 320.895 427.895 320 429 320ZM453 320C454.105 320 455 320.895 455 322C455 323.105 454.105 324 453 324C451.895 324 451 323.105 451 322C451 320.895 451.895 320 453 320ZM2 319C3.10457 319 4 319.895 4 321C4 322.105 3.10457 323 2 323C0.895431 323 0 322.105 0 321C0 319.895 0.895431 319 2 319ZM23 319C24.1046 319 25 319.895 25 321C25 322.105 24.1046 323 23 323C21.8954 323 21 322.105 21 321C21 319.895 21.8954 319 23 319ZM44 319C45.1046 319 46 319.895 46 321C46 322.105 45.1046 323 44 323C42.8954 323 42 322.105 42 321C42 319.895 42.8954 319 44 319ZM65 319C66.1046 319 67 319.895 67 321C67 322.105 66.1046 323 65 323C63.8954 323 63 322.105 63 321C63 319.895 63.8954 319 65 319ZM86 319C87.1046 319 88 319.895 88 321C88 322.105 87.1046 323 86 323C84.8954 323 84 322.105 84 321C84 319.895 84.8954 319 86 319ZM107 319C108.105 319 109 319.895 109 321C109 322.105 108.105 323 107 323C105.895 323 105 322.105 105 321C105 319.895 105.895 319 107 319ZM128 319C129.105 319 130 319.895 130 321C130 322.105 129.105 323 128 323C126.895 323 126 322.105 126 321C126 319.895 126.895 319 128 319ZM540 319C541.105 319 542 319.895 542 321C542 322.105 541.105 323 540 323C538.895 323 538 322.105 538 321C538 319.895 538.895 319 540 319ZM561 319C562.105 319 563 319.895 563 321C563 322.105 562.105 323 561 323C559.895 323 559 322.105 559 321C559 319.895 559.895 319 561 319ZM582 319C583.105 319 584 319.895 584 321C584 322.105 583.105 323 582 323C580.895 323 580 322.105 580 321C580 319.895 580.895 319 582 319ZM603 319C604.105 319 605 319.895 605 321C605 322.105 604.105 323 603 323C601.895 323 601 322.105 601 321C601 319.895 601.895 319 603 319ZM624 319C625.105 319 626 319.895 626 321C626 322.105 625.105 323 624 323C622.895 323 622 322.105 622 321C622 319.895 622.895 319 624 319ZM645 319C646.105 319 647 319.895 647 321C647 322.105 646.105 323 645 323C643.895 323 643 322.105 643 321C643 319.895 643.895 319 645 319ZM666 319C667.105 319 668 319.895 668 321C668 322.105 667.105 323 666 323C664.895 323 664 322.105 664 321C664 319.895 664.895 319 666 319ZM193 318C194.105 318 195 318.895 195 320C195 321.105 194.105 322 193 322C191.895 322 191 321.105 191 320C191 318.895 191.895 318 193 318ZM475 318C476.105 318 477 318.895 477 320C477 321.105 476.105 322 475 322C473.895 322 473 321.105 473 320C473 318.895 473.895 318 475 318ZM149 316C150.105 316 151 316.895 151 318C151 319.105 150.105 320 149 320C147.895 320 147 319.105 147 318C147 316.895 147.895 316 149 316ZM171 316C172.105 316 173 316.895 173 318C173 319.105 172.105 320 171 320C169.895 320 169 319.105 169 318C169 316.895 169.895 316 171 316ZM497 316C498.105 316 499 316.895 499 318C499 319.105 498.105 320 497 320C495.895 320 495 319.105 495 318C495 316.895 495.895 316 497 316ZM519 316C520.105 316 521 316.895 521 318C521 319.105 520.105 320 519 320C517.895 320 517 319.105 517 318C517 316.895 517.895 316 519 316ZM287 302C288.105 302 289 302.895 289 304C289 305.105 288.105 306 287 306C285.895 306 285 305.105 285 304C285 302.895 285.895 302 287 302ZM381 302C382.105 302 383 302.895 383 304C383 305.105 382.105 306 381 306C379.895 306 379 305.105 379 304C379 302.895 379.895 302 381 302ZM311 301C312.105 301 313 301.895 313 303C313 304.105 312.105 305 311 305C309.895 305 309 304.105 309 303C309 301.895 309.895 301 311 301ZM334 301C335.105 301 336 301.895 336 303C336 304.105 335.105 305 334 305C332.895 305 332 304.105 332 303C332 301.895 332.895 301 334 301ZM357 301C358.105 301 359 301.895 359 303C359 304.105 358.105 305 357 305C355.895 305 355 304.105 355 303C355 301.895 355.895 301 357 301ZM261 300C262.105 300 263 300.895 263 302C263 303.105 262.105 304 261 304C259.895 304 259 303.105 259 302C259 300.895 259.895 300 261 300ZM407 300C408.105 300 409 300.895 409 302C409 303.105 408.105 304 407 304C405.895 304 405 303.105 405 302C405 300.895 405.895 300 407 300ZM237 298C238.105 298 239 298.895 239 300C239 301.105 238.105 302 237 302C235.895 302 235 301.105 235 300C235 298.895 235.895 298 237 298ZM431 298C432.105 298 433 298.895 433 300C433 301.105 432.105 302 431 302C429.895 302 429 301.105 429 300C429 298.895 429.895 298 431 298ZM214 296C215.105 296 216 296.895 216 298C216 299.105 215.105 300 214 300C212.895 300 212 299.105 212 298C212 296.895 212.895 296 214 296ZM454 296C455.105 296 456 296.895 456 298C456 299.105 455.105 300 454 300C452.895 300 452 299.105 452 298C452 296.895 452.895 296 454 296ZM2 294C3.10457 294 4 294.895 4 296C4 297.105 3.10457 298 2 298C0.895431 298 0 297.105 0 296C0 294.895 0.895431 294 2 294ZM23 294C24.1046 294 25 294.895 25 296C25 297.105 24.1046 298 23 298C21.8954 298 21 297.105 21 296C21 294.895 21.8954 294 23 294ZM44 294C45.1046 294 46 294.895 46 296C46 297.105 45.1046 298 44 298C42.8954 298 42 297.105 42 296C42 294.895 42.8954 294 44 294ZM65 294C66.1046 294 67 294.895 67 296C67 297.105 66.1046 298 65 298C63.8954 298 63 297.105 63 296C63 294.895 63.8954 294 65 294ZM86 294C87.1046 294 88 294.895 88 296C88 297.105 87.1046 298 86 298C84.8954 298 84 297.105 84 296C84 294.895 84.8954 294 86 294ZM107 294C108.105 294 109 294.895 109 296C109 297.105 108.105 298 107 298C105.895 298 105 297.105 105 296C105 294.895 105.895 294 107 294ZM128 294C129.105 294 130 294.895 130 296C130 297.105 129.105 298 128 298C126.895 298 126 297.105 126 296C126 294.895 126.895 294 128 294ZM171 294C172.105 294 173 294.895 173 296C173 297.105 172.105 298 171 298C169.895 298 169 297.105 169 296C169 294.895 169.895 294 171 294ZM192 294C193.105 294 194 294.895 194 296C194 297.105 193.105 298 192 298C190.895 298 190 297.105 190 296C190 294.895 190.895 294 192 294ZM476 294C477.105 294 478 294.895 478 296C478 297.105 477.105 298 476 298C474.895 298 474 297.105 474 296C474 294.895 474.895 294 476 294ZM497 294C498.105 294 499 294.895 499 296C499 297.105 498.105 298 497 298C495.895 298 495 297.105 495 296C495 294.895 495.895 294 497 294ZM540 294C541.105 294 542 294.895 542 296C542 297.105 541.105 298 540 298C538.895 298 538 297.105 538 296C538 294.895 538.895 294 540 294ZM561 294C562.105 294 563 294.895 563 296C563 297.105 562.105 298 561 298C559.895 298 559 297.105 559 296C559 294.895 559.895 294 561 294ZM582 294C583.105 294 584 294.895 584 296C584 297.105 583.105 298 582 298C580.895 298 580 297.105 580 296C580 294.895 580.895 294 582 294ZM603 294C604.105 294 605 294.895 605 296C605 297.105 604.105 298 603 298C601.895 298 601 297.105 601 296C601 294.895 601.895 294 603 294ZM624 294C625.105 294 626 294.895 626 296C626 297.105 625.105 298 624 298C622.895 298 622 297.105 622 296C622 294.895 622.895 294 624 294ZM645 294C646.105 294 647 294.895 647 296C647 297.105 646.105 298 645 298C643.895 298 643 297.105 643 296C643 294.895 643.895 294 645 294ZM666 294C667.105 294 668 294.895 668 296C668 297.105 667.105 298 666 298C664.895 298 664 297.105 664 296C664 294.895 664.895 294 666 294ZM149 293C150.105 293 151 293.895 151 295C151 296.105 150.105 297 149 297C147.895 297 147 296.105 147 295C147 293.895 147.895 293 149 293ZM519 293C520.105 293 521 293.895 521 295C521 296.105 520.105 297 519 297C517.895 297 517 296.105 517 295C517 293.895 517.895 293 519 293ZM262 278C263.105 278 264 278.895 264 280C264 281.105 263.105 282 262 282C260.895 282 260 281.105 260 280C260 278.895 260.895 278 262 278ZM287 278C288.105 278 289 278.895 289 280C289 281.105 288.105 282 287 282C285.895 282 285 281.105 285 280C285 278.895 285.895 278 287 278ZM311 278C312.105 278 313 278.895 313 280C313 281.105 312.105 282 311 282C309.895 282 309 281.105 309 280C309 278.895 309.895 278 311 278ZM334 278C335.105 278 336 278.895 336 280C336 281.105 335.105 282 334 282C332.895 282 332 281.105 332 280C332 278.895 332.895 278 334 278ZM357 278C358.105 278 359 278.895 359 280C359 281.105 358.105 282 357 282C355.895 282 355 281.105 355 280C355 278.895 355.895 278 357 278ZM381 278C382.105 278 383 278.895 383 280C383 281.105 382.105 282 381 282C379.895 282 379 281.105 379 280C379 278.895 379.895 278 381 278ZM406 278C407.105 278 408 278.895 408 280C408 281.105 407.105 282 406 282C404.895 282 404 281.105 404 280C404 278.895 404.895 278 406 278ZM215 276C216.105 276 217 276.895 217 278C217 279.105 216.105 280 215 280C213.895 280 213 279.105 213 278C213 276.895 213.895 276 215 276ZM239 276C240.105 276 241 276.895 241 278C241 279.105 240.105 280 239 280C237.895 280 237 279.105 237 278C237 276.895 237.895 276 239 276ZM429 276C430.105 276 431 276.895 431 278C431 279.105 430.105 280 429 280C427.895 280 427 279.105 427 278C427 276.895 427.895 276 429 276ZM453 276C454.105 276 455 276.895 455 278C455 279.105 454.105 280 453 280C451.895 280 451 279.105 451 278C451 276.895 451.895 276 453 276ZM2 275C3.10457 275 4 275.895 4 277C4 278.105 3.10457 279 2 279C0.895431 279 0 278.105 0 277C0 275.895 0.895431 275 2 275ZM23 275C24.1046 275 25 275.895 25 277C25 278.105 24.1046 279 23 279C21.8954 279 21 278.105 21 277C21 275.895 21.8954 275 23 275ZM44 275C45.1046 275 46 275.895 46 277C46 278.105 45.1046 279 44 279C42.8954 279 42 278.105 42 277C42 275.895 42.8954 275 44 275ZM65 275C66.1046 275 67 275.895 67 277C67 278.105 66.1046 279 65 279C63.8954 279 63 278.105 63 277C63 275.895 63.8954 275 65 275ZM86 275C87.1046 275 88 275.895 88 277C88 278.105 87.1046 279 86 279C84.8954 279 84 278.105 84 277C84 275.895 84.8954 275 86 275ZM107 275C108.105 275 109 275.895 109 277C109 278.105 108.105 279 107 279C105.895 279 105 278.105 105 277C105 275.895 105.895 275 107 275ZM128 275C129.105 275 130 275.895 130 277C130 278.105 129.105 279 128 279C126.895 279 126 278.105 126 277C126 275.895 126.895 275 128 275ZM540 275C541.105 275 542 275.895 542 277C542 278.105 541.105 279 540 279C538.895 279 538 278.105 538 277C538 275.895 538.895 275 540 275ZM561 275C562.105 275 563 275.895 563 277C563 278.105 562.105 279 561 279C559.895 279 559 278.105 559 277C559 275.895 559.895 275 561 275ZM582 275C583.105 275 584 275.895 584 277C584 278.105 583.105 279 582 279C580.895 279 580 278.105 580 277C580 275.895 580.895 275 582 275ZM603 275C604.105 275 605 275.895 605 277C605 278.105 604.105 279 603 279C601.895 279 601 278.105 601 277C601 275.895 601.895 275 603 275ZM624 275C625.105 275 626 275.895 626 277C626 278.105 625.105 279 624 279C622.895 279 622 278.105 622 277C622 275.895 622.895 275 624 275ZM645 275C646.105 275 647 275.895 647 277C647 278.105 646.105 279 645 279C643.895 279 643 278.105 643 277C643 275.895 643.895 275 645 275ZM666 275C667.105 275 668 275.895 668 277C668 278.105 667.105 279 666 279C664.895 279 664 278.105 664 277C664 275.895 664.895 275 666 275ZM193 274C194.105 274 195 274.895 195 276C195 277.105 194.105 278 193 278C191.895 278 191 277.105 191 276C191 274.895 191.895 274 193 274ZM475 274C476.105 274 477 274.895 477 276C477 277.105 476.105 278 475 278C473.895 278 473 277.105 473 276C473 274.895 473.895 274 475 274ZM149 272C150.105 272 151 272.895 151 274C151 275.105 150.105 276 149 276C147.895 276 147 275.105 147 274C147 272.895 147.895 272 149 272ZM171 272C172.105 272 173 272.895 173 274C173 275.105 172.105 276 171 276C169.895 276 169 275.105 169 274C169 272.895 169.895 272 171 272ZM497 272C498.105 272 499 272.895 499 274C499 275.105 498.105 276 497 276C495.895 276 495 275.105 495 274C495 272.895 495.895 272 497 272ZM519 272C520.105 272 521 272.895 521 274C521 275.105 520.105 276 519 276C517.895 276 517 275.105 517 274C517 272.895 517.895 272 519 272ZM287 258C288.105 258 289 258.895 289 260C289 261.105 288.105 262 287 262C285.895 262 285 261.105 285 260C285 258.895 285.895 258 287 258ZM381 258C382.105 258 383 258.895 383 260C383 261.105 382.105 262 381 262C379.895 262 379 261.105 379 260C379 258.895 379.895 258 381 258ZM311 257C312.105 257 313 257.895 313 259C313 260.105 312.105 261 311 261C309.895 261 309 260.105 309 259C309 257.895 309.895 257 311 257ZM334 257C335.105 257 336 257.895 336 259C336 260.105 335.105 261 334 261C332.895 261 332 260.105 332 259C332 257.895 332.895 257 334 257ZM357 257C358.105 257 359 257.895 359 259C359 260.105 358.105 261 357 261C355.895 261 355 260.105 355 259C355 257.895 355.895 257 357 257ZM261 256C262.105 256 263 256.895 263 258C263 259.105 262.105 260 261 260C259.895 260 259 259.105 259 258C259 256.895 259.895 256 261 256ZM407 256C408.105 256 409 256.895 409 258C409 259.105 408.105 260 407 260C405.895 260 405 259.105 405 258C405 256.895 405.895 256 407 256ZM237 254C238.105 254 239 254.895 239 256C239 257.105 238.105 258 237 258C235.895 258 235 257.105 235 256C235 254.895 235.895 254 237 254ZM431 254C432.105 254 433 254.895 433 256C433 257.105 432.105 258 431 258C429.895 258 429 257.105 429 256C429 254.895 429.895 254 431 254ZM214 252C215.105 252 216 252.895 216 254C216 255.105 215.105 256 214 256C212.895 256 212 255.105 212 254C212 252.895 212.895 252 214 252ZM454 252C455.105 252 456 252.895 456 254C456 255.105 455.105 256 454 256C452.895 256 452 255.105 452 254C452 252.895 452.895 252 454 252ZM2 250C3.10457 250 4 250.895 4 252C4 253.105 3.10457 254 2 254C0.895431 254 0 253.105 0 252C0 250.895 0.895431 250 2 250ZM23 250C24.1046 250 25 250.895 25 252C25 253.105 24.1046 254 23 254C21.8954 254 21 253.105 21 252C21 250.895 21.8954 250 23 250ZM44 250C45.1046 250 46 250.895 46 252C46 253.105 45.1046 254 44 254C42.8954 254 42 253.105 42 252C42 250.895 42.8954 250 44 250ZM65 250C66.1046 250 67 250.895 67 252C67 253.105 66.1046 254 65 254C63.8954 254 63 253.105 63 252C63 250.895 63.8954 250 65 250ZM86 250C87.1046 250 88 250.895 88 252C88 253.105 87.1046 254 86 254C84.8954 254 84 253.105 84 252C84 250.895 84.8954 250 86 250ZM107 250C108.105 250 109 250.895 109 252C109 253.105 108.105 254 107 254C105.895 254 105 253.105 105 252C105 250.895 105.895 250 107 250ZM128 250C129.105 250 130 250.895 130 252C130 253.105 129.105 254 128 254C126.895 254 126 253.105 126 252C126 250.895 126.895 250 128 250ZM171 250C172.105 250 173 250.895 173 252C173 253.105 172.105 254 171 254C169.895 254 169 253.105 169 252C169 250.895 169.895 250 171 250ZM192 250C193.105 250 194 250.895 194 252C194 253.105 193.105 254 192 254C190.895 254 190 253.105 190 252C190 250.895 190.895 250 192 250ZM476 250C477.105 250 478 250.895 478 252C478 253.105 477.105 254 476 254C474.895 254 474 253.105 474 252C474 250.895 474.895 250 476 250ZM497 250C498.105 250 499 250.895 499 252C499 253.105 498.105 254 497 254C495.895 254 495 253.105 495 252C495 250.895 495.895 250 497 250ZM540 250C541.105 250 542 250.895 542 252C542 253.105 541.105 254 540 254C538.895 254 538 253.105 538 252C538 250.895 538.895 250 540 250ZM561 250C562.105 250 563 250.895 563 252C563 253.105 562.105 254 561 254C559.895 254 559 253.105 559 252C559 250.895 559.895 250 561 250ZM582 250C583.105 250 584 250.895 584 252C584 253.105 583.105 254 582 254C580.895 254 580 253.105 580 252C580 250.895 580.895 250 582 250ZM603 250C604.105 250 605 250.895 605 252C605 253.105 604.105 254 603 254C601.895 254 601 253.105 601 252C601 250.895 601.895 250 603 250ZM624 250C625.105 250 626 250.895 626 252C626 253.105 625.105 254 624 254C622.895 254 622 253.105 622 252C622 250.895 622.895 250 624 250ZM645 250C646.105 250 647 250.895 647 252C647 253.105 646.105 254 645 254C643.895 254 643 253.105 643 252C643 250.895 643.895 250 645 250ZM666 250C667.105 250 668 250.895 668 252C668 253.105 667.105 254 666 254C664.895 254 664 253.105 664 252C664 250.895 664.895 250 666 250ZM149 249C150.105 249 151 249.895 151 251C151 252.105 150.105 253 149 253C147.895 253 147 252.105 147 251C147 249.895 147.895 249 149 249ZM519 249C520.105 249 521 249.895 521 251C521 252.105 520.105 253 519 253C517.895 253 517 252.105 517 251C517 249.895 517.895 249 519 249ZM286 237C287.105 237 288 237.895 288 239C288 240.105 287.105 241 286 241C284.895 241 284 240.105 284 239C284 237.895 284.895 237 286 237ZM311 237C312.105 237 313 237.895 313 239C313 240.105 312.105 241 311 241C309.895 241 309 240.105 309 239C309 237.895 309.895 237 311 237ZM334 237C335.105 237 336 237.895 336 239C336 240.105 335.105 241 334 241C332.895 241 332 240.105 332 239C332 237.895 332.895 237 334 237ZM357 237C358.105 237 359 237.895 359 239C359 240.105 358.105 241 357 241C355.895 241 355 240.105 355 239C355 237.895 355.895 237 357 237ZM382 237C383.105 237 384 237.895 384 239C384 240.105 383.105 241 382 241C380.895 241 380 240.105 380 239C380 237.895 380.895 237 382 237ZM258 233C259.105 233 260 233.895 260 235C260 236.105 259.105 237 258 237C256.895 237 256 236.105 256 235C256 233.895 256.895 233 258 233ZM410 233C411.105 233 412 233.895 412 235C412 236.105 411.105 237 410 237C408.895 237 408 236.105 408 235C408 233.895 408.895 233 410 233ZM235 230C236.105 230 237 230.895 237 232C237 233.105 236.105 234 235 234C233.895 234 233 233.105 233 232C233 230.895 233.895 230 235 230ZM433 230C434.105 230 435 230.895 435 232C435 233.105 434.105 234 433 234C431.895 234 431 233.105 431 232C431 230.895 431.895 230 433 230ZM191 228C192.105 228 193 228.895 193 230C193 231.105 192.105 232 191 232C189.895 232 189 231.105 189 230C189 228.895 189.895 228 191 228ZM212 228C213.105 228 214 228.895 214 230C214 231.105 213.105 232 212 232C210.895 232 210 231.105 210 230C210 228.895 210.895 228 212 228ZM456 228C457.105 228 458 228.895 458 230C458 231.105 457.105 232 456 232C454.895 232 454 231.105 454 230C454 228.895 454.895 228 456 228ZM477 228C478.105 228 479 228.895 479 230C479 231.105 478.105 232 477 232C475.895 232 475 231.105 475 230C475 228.895 475.895 228 477 228ZM149 227C150.105 227 151 227.895 151 229C151 230.105 150.105 231 149 231C147.895 231 147 230.105 147 229C147 227.895 147.895 227 149 227ZM170 227C171.105 227 172 227.895 172 229C172 230.105 171.105 231 170 231C168.895 231 168 230.105 168 229C168 227.895 168.895 227 170 227ZM498 227C499.105 227 500 227.895 500 229C500 230.105 499.105 231 498 231C496.895 231 496 230.105 496 229C496 227.895 496.895 227 498 227ZM519 227C520.105 227 521 227.895 521 229C521 230.105 520.105 231 519 231C517.895 231 517 230.105 517 229C517 227.895 517.895 227 519 227ZM2 225C3.10457 225 4 225.895 4 227C4 228.105 3.10457 229 2 229C0.895431 229 0 228.105 0 227C0 225.895 0.895431 225 2 225ZM23 225C24.1046 225 25 225.895 25 227C25 228.105 24.1046 229 23 229C21.8954 229 21 228.105 21 227C21 225.895 21.8954 225 23 225ZM44 225C45.1046 225 46 225.895 46 227C46 228.105 45.1046 229 44 229C42.8954 229 42 228.105 42 227C42 225.895 42.8954 225 44 225ZM65 225C66.1046 225 67 225.895 67 227C67 228.105 66.1046 229 65 229C63.8954 229 63 228.105 63 227C63 225.895 63.8954 225 65 225ZM86 225C87.1046 225 88 225.895 88 227C88 228.105 87.1046 229 86 229C84.8954 229 84 228.105 84 227C84 225.895 84.8954 225 86 225ZM107 225C108.105 225 109 225.895 109 227C109 228.105 108.105 229 107 229C105.895 229 105 228.105 105 227C105 225.895 105.895 225 107 225ZM128 225C129.105 225 130 225.895 130 227C130 228.105 129.105 229 128 229C126.895 229 126 228.105 126 227C126 225.895 126.895 225 128 225ZM540 225C541.105 225 542 225.895 542 227C542 228.105 541.105 229 540 229C538.895 229 538 228.105 538 227C538 225.895 538.895 225 540 225ZM561 225C562.105 225 563 225.895 563 227C563 228.105 562.105 229 561 229C559.895 229 559 228.105 559 227C559 225.895 559.895 225 561 225ZM582 225C583.105 225 584 225.895 584 227C584 228.105 583.105 229 582 229C580.895 229 580 228.105 580 227C580 225.895 580.895 225 582 225ZM603 225C604.105 225 605 225.895 605 227C605 228.105 604.105 229 603 229C601.895 229 601 228.105 601 227C601 225.895 601.895 225 603 225ZM624 225C625.105 225 626 225.895 626 227C626 228.105 625.105 229 624 229C622.895 229 622 228.105 622 227C622 225.895 622.895 225 624 225ZM645 225C646.105 225 647 225.895 647 227C647 228.105 646.105 229 645 229C643.895 229 643 228.105 643 227C643 225.895 643.895 225 645 225ZM666 225C667.105 225 668 225.895 668 227C668 228.105 667.105 229 666 229C664.895 229 664 228.105 664 227C664 225.895 664.895 225 666 225ZM311 217C312.105 217 313 217.895 313 219C313 220.105 312.105 221 311 221C309.895 221 309 220.105 309 219C309 217.895 309.895 217 311 217ZM334 217C335.105 217 336 217.895 336 219C336 220.105 335.105 221 334 221C332.895 221 332 220.105 332 219C332 217.895 332.895 217 334 217ZM357 217C358.105 217 359 217.895 359 219C359 220.105 358.105 221 357 221C355.895 221 355 220.105 355 219C355 217.895 355.895 217 357 217ZM279 213C280.105 213 281 213.895 281 215C281 216.105 280.105 217 279 217C277.895 217 277 216.105 277 215C277 213.895 277.895 213 279 213ZM389 213C390.105 213 391 213.895 391 215C391 216.105 390.105 217 389 217C387.895 217 387 216.105 387 215C387 213.895 387.895 213 389 213ZM254 206C255.105 206 256 206.895 256 208C256 209.105 255.105 210 254 210C252.895 210 252 209.105 252 208C252 206.895 252.895 206 254 206ZM414 206C415.105 206 416 206.895 416 208C416 209.105 415.105 210 414 210C412.895 210 412 209.105 412 208C412 206.895 412.895 206 414 206ZM233 204C234.105 204 235 204.895 235 206C235 207.105 234.105 208 233 208C231.895 208 231 207.105 231 206C231 204.895 231.895 204 233 204ZM435 204C436.105 204 437 204.895 437 206C437 207.105 436.105 208 435 208C433.895 208 433 207.105 433 206C433 204.895 433.895 204 435 204ZM191 203C192.105 203 193 203.895 193 205C193 206.105 192.105 207 191 207C189.895 207 189 206.105 189 205C189 203.895 189.895 203 191 203ZM212 203C213.105 203 214 203.895 214 205C214 206.105 213.105 207 212 207C210.895 207 210 206.105 210 205C210 203.895 210.895 203 212 203ZM456 203C457.105 203 458 203.895 458 205C458 206.105 457.105 207 456 207C454.895 207 454 206.105 454 205C454 203.895 454.895 203 456 203ZM477 203C478.105 203 479 203.895 479 205C479 206.105 478.105 207 477 207C475.895 207 475 206.105 475 205C475 203.895 475.895 203 477 203ZM149 202C150.105 202 151 202.895 151 204C151 205.105 150.105 206 149 206C147.895 206 147 205.105 147 204C147 202.895 147.895 202 149 202ZM170 202C171.105 202 172 202.895 172 204C172 205.105 171.105 206 170 206C168.895 206 168 205.105 168 204C168 202.895 168.895 202 170 202ZM498 202C499.105 202 500 202.895 500 204C500 205.105 499.105 206 498 206C496.895 206 496 205.105 496 204C496 202.895 496.895 202 498 202ZM519 202C520.105 202 521 202.895 521 204C521 205.105 520.105 206 519 206C517.895 206 517 205.105 517 204C517 202.895 517.895 202 519 202ZM2 200C3.10457 200 4 200.895 4 202C4 203.105 3.10457 204 2 204C0.895431 204 0 203.105 0 202C0 200.895 0.895431 200 2 200ZM23 200C24.1046 200 25 200.895 25 202C25 203.105 24.1046 204 23 204C21.8954 204 21 203.105 21 202C21 200.895 21.8954 200 23 200ZM44 200C45.1046 200 46 200.895 46 202C46 203.105 45.1046 204 44 204C42.8954 204 42 203.105 42 202C42 200.895 42.8954 200 44 200ZM65 200C66.1046 200 67 200.895 67 202C67 203.105 66.1046 204 65 204C63.8954 204 63 203.105 63 202C63 200.895 63.8954 200 65 200ZM86 200C87.1046 200 88 200.895 88 202C88 203.105 87.1046 204 86 204C84.8954 204 84 203.105 84 202C84 200.895 84.8954 200 86 200ZM107 200C108.105 200 109 200.895 109 202C109 203.105 108.105 204 107 204C105.895 204 105 203.105 105 202C105 200.895 105.895 200 107 200ZM128 200C129.105 200 130 200.895 130 202C130 203.105 129.105 204 128 204C126.895 204 126 203.105 126 202C126 200.895 126.895 200 128 200ZM540 200C541.105 200 542 200.895 542 202C542 203.105 541.105 204 540 204C538.895 204 538 203.105 538 202C538 200.895 538.895 200 540 200ZM561 200C562.105 200 563 200.895 563 202C563 203.105 562.105 204 561 204C559.895 204 559 203.105 559 202C559 200.895 559.895 200 561 200ZM582 200C583.105 200 584 200.895 584 202C584 203.105 583.105 204 582 204C580.895 204 580 203.105 580 202C580 200.895 580.895 200 582 200ZM603 200C604.105 200 605 200.895 605 202C605 203.105 604.105 204 603 204C601.895 204 601 203.105 601 202C601 200.895 601.895 200 603 200ZM624 200C625.105 200 626 200.895 626 202C626 203.105 625.105 204 624 204C622.895 204 622 203.105 622 202C622 200.895 622.895 200 624 200ZM645 200C646.105 200 647 200.895 647 202C647 203.105 646.105 204 645 204C643.895 204 643 203.105 643 202C643 200.895 643.895 200 645 200ZM666 200C667.105 200 668 200.895 668 202C668 203.105 667.105 204 666 204C664.895 204 664 203.105 664 202C664 200.895 664.895 200 666 200ZM2 180C3.10457 180 4 180.895 4 182C4 183.105 3.10457 184 2 184C0.895431 184 0 183.105 0 182C0 180.895 0.895431 180 2 180ZM23 180C24.1046 180 25 180.895 25 182C25 183.105 24.1046 184 23 184C21.8954 184 21 183.105 21 182C21 180.895 21.8954 180 23 180ZM44 180C45.1046 180 46 180.895 46 182C46 183.105 45.1046 184 44 184C42.8954 184 42 183.105 42 182C42 180.895 42.8954 180 44 180ZM65 180C66.1046 180 67 180.895 67 182C67 183.105 66.1046 184 65 184C63.8954 184 63 183.105 63 182C63 180.895 63.8954 180 65 180ZM86 180C87.1046 180 88 180.895 88 182C88 183.105 87.1046 184 86 184C84.8954 184 84 183.105 84 182C84 180.895 84.8954 180 86 180ZM107 180C108.105 180 109 180.895 109 182C109 183.105 108.105 184 107 184C105.895 184 105 183.105 105 182C105 180.895 105.895 180 107 180ZM128 180C129.105 180 130 180.895 130 182C130 183.105 129.105 184 128 184C126.895 184 126 183.105 126 182C126 180.895 126.895 180 128 180ZM149 180C150.105 180 151 180.895 151 182C151 183.105 150.105 184 149 184C147.895 184 147 183.105 147 182C147 180.895 147.895 180 149 180ZM170 180C171.105 180 172 180.895 172 182C172 183.105 171.105 184 170 184C168.895 184 168 183.105 168 182C168 180.895 168.895 180 170 180ZM191 180C192.105 180 193 180.895 193 182C193 183.105 192.105 184 191 184C189.895 184 189 183.105 189 182C189 180.895 189.895 180 191 180ZM212 180C213.105 180 214 180.895 214 182C214 183.105 213.105 184 212 184C210.895 184 210 183.105 210 182C210 180.895 210.895 180 212 180ZM233 180C234.105 180 235 180.895 235 182C235 183.105 234.105 184 233 184C231.895 184 231 183.105 231 182C231 180.895 231.895 180 233 180ZM254 180C255.105 180 256 180.895 256 182C256 183.105 255.105 184 254 184C252.895 184 252 183.105 252 182C252 180.895 252.895 180 254 180ZM274 180C275.105 180 276 180.895 276 182C276 183.105 275.105 184 274 184C272.895 184 272 183.105 272 182C272 180.895 272.895 180 274 180ZM394 180C395.105 180 396 180.895 396 182C396 183.105 395.105 184 394 184C392.895 184 392 183.105 392 182C392 180.895 392.895 180 394 180ZM414 180C415.105 180 416 180.895 416 182C416 183.105 415.105 184 414 184C412.895 184 412 183.105 412 182C412 180.895 412.895 180 414 180ZM435 180C436.105 180 437 180.895 437 182C437 183.105 436.105 184 435 184C433.895 184 433 183.105 433 182C433 180.895 433.895 180 435 180ZM456 180C457.105 180 458 180.895 458 182C458 183.105 457.105 184 456 184C454.895 184 454 183.105 454 182C454 180.895 454.895 180 456 180ZM477 180C478.105 180 479 180.895 479 182C479 183.105 478.105 184 477 184C475.895 184 475 183.105 475 182C475 180.895 475.895 180 477 180ZM498 180C499.105 180 500 180.895 500 182C500 183.105 499.105 184 498 184C496.895 184 496 183.105 496 182C496 180.895 496.895 180 498 180ZM519 180C520.105 180 521 180.895 521 182C521 183.105 520.105 184 519 184C517.895 184 517 183.105 517 182C517 180.895 517.895 180 519 180ZM540 180C541.105 180 542 180.895 542 182C542 183.105 541.105 184 540 184C538.895 184 538 183.105 538 182C538 180.895 538.895 180 540 180ZM561 180C562.105 180 563 180.895 563 182C563 183.105 562.105 184 561 184C559.895 184 559 183.105 559 182C559 180.895 559.895 180 561 180ZM582 180C583.105 180 584 180.895 584 182C584 183.105 583.105 184 582 184C580.895 184 580 183.105 580 182C580 180.895 580.895 180 582 180ZM603 180C604.105 180 605 180.895 605 182C605 183.105 604.105 184 603 184C601.895 184 601 183.105 601 182C601 180.895 601.895 180 603 180ZM624 180C625.105 180 626 180.895 626 182C626 183.105 625.105 184 624 184C622.895 184 622 183.105 622 182C622 180.895 622.895 180 624 180ZM645 180C646.105 180 647 180.895 647 182C647 183.105 646.105 184 645 184C643.895 184 643 183.105 643 182C643 180.895 643.895 180 645 180ZM666 180C667.105 180 668 180.895 668 182C668 183.105 667.105 184 666 184C664.895 184 664 183.105 664 182C664 180.895 664.895 180 666 180ZM2 157C3.10457 157 4 157.895 4 159C4 160.105 3.10457 161 2 161C0.895431 161 0 160.105 0 159C0 157.895 0.895431 157 2 157ZM23 157C24.1046 157 25 157.895 25 159C25 160.105 24.1046 161 23 161C21.8954 161 21 160.105 21 159C21 157.895 21.8954 157 23 157ZM44 157C45.1046 157 46 157.895 46 159C46 160.105 45.1046 161 44 161C42.8954 161 42 160.105 42 159C42 157.895 42.8954 157 44 157ZM65 157C66.1046 157 67 157.895 67 159C67 160.105 66.1046 161 65 161C63.8954 161 63 160.105 63 159C63 157.895 63.8954 157 65 157ZM86 157C87.1046 157 88 157.895 88 159C88 160.105 87.1046 161 86 161C84.8954 161 84 160.105 84 159C84 157.895 84.8954 157 86 157ZM107 157C108.105 157 109 157.895 109 159C109 160.105 108.105 161 107 161C105.895 161 105 160.105 105 159C105 157.895 105.895 157 107 157ZM128 157C129.105 157 130 157.895 130 159C130 160.105 129.105 161 128 161C126.895 161 126 160.105 126 159C126 157.895 126.895 157 128 157ZM149 157C150.105 157 151 157.895 151 159C151 160.105 150.105 161 149 161C147.895 161 147 160.105 147 159C147 157.895 147.895 157 149 157ZM170 157C171.105 157 172 157.895 172 159C172 160.105 171.105 161 170 161C168.895 161 168 160.105 168 159C168 157.895 168.895 157 170 157ZM191 157C192.105 157 193 157.895 193 159C193 160.105 192.105 161 191 161C189.895 161 189 160.105 189 159C189 157.895 189.895 157 191 157ZM212 157C213.105 157 214 157.895 214 159C214 160.105 213.105 161 212 161C210.895 161 210 160.105 210 159C210 157.895 210.895 157 212 157ZM233 157C234.105 157 235 157.895 235 159C235 160.105 234.105 161 233 161C231.895 161 231 160.105 231 159C231 157.895 231.895 157 233 157ZM254 157C255.105 157 256 157.895 256 159C256 160.105 255.105 161 254 161C252.895 161 252 160.105 252 159C252 157.895 252.895 157 254 157ZM274 157C275.105 157 276 157.895 276 159C276 160.105 275.105 161 274 161C272.895 161 272 160.105 272 159C272 157.895 272.895 157 274 157ZM394 157C395.105 157 396 157.895 396 159C396 160.105 395.105 161 394 161C392.895 161 392 160.105 392 159C392 157.895 392.895 157 394 157ZM414 157C415.105 157 416 157.895 416 159C416 160.105 415.105 161 414 161C412.895 161 412 160.105 412 159C412 157.895 412.895 157 414 157ZM435 157C436.105 157 437 157.895 437 159C437 160.105 436.105 161 435 161C433.895 161 433 160.105 433 159C433 157.895 433.895 157 435 157ZM456 157C457.105 157 458 157.895 458 159C458 160.105 457.105 161 456 161C454.895 161 454 160.105 454 159C454 157.895 454.895 157 456 157ZM477 157C478.105 157 479 157.895 479 159C479 160.105 478.105 161 477 161C475.895 161 475 160.105 475 159C475 157.895 475.895 157 477 157ZM498 157C499.105 157 500 157.895 500 159C500 160.105 499.105 161 498 161C496.895 161 496 160.105 496 159C496 157.895 496.895 157 498 157ZM519 157C520.105 157 521 157.895 521 159C521 160.105 520.105 161 519 161C517.895 161 517 160.105 517 159C517 157.895 517.895 157 519 157ZM540 157C541.105 157 542 157.895 542 159C542 160.105 541.105 161 540 161C538.895 161 538 160.105 538 159C538 157.895 538.895 157 540 157ZM561 157C562.105 157 563 157.895 563 159C563 160.105 562.105 161 561 161C559.895 161 559 160.105 559 159C559 157.895 559.895 157 561 157ZM582 157C583.105 157 584 157.895 584 159C584 160.105 583.105 161 582 161C580.895 161 580 160.105 580 159C580 157.895 580.895 157 582 157ZM603 157C604.105 157 605 157.895 605 159C605 160.105 604.105 161 603 161C601.895 161 601 160.105 601 159C601 157.895 601.895 157 603 157ZM624 157C625.105 157 626 157.895 626 159C626 160.105 625.105 161 624 161C622.895 161 622 160.105 622 159C622 157.895 622.895 157 624 157ZM645 157C646.105 157 647 157.895 647 159C647 160.105 646.105 161 645 161C643.895 161 643 160.105 643 159C643 157.895 643.895 157 645 157ZM666 157C667.105 157 668 157.895 668 159C668 160.105 667.105 161 666 161C664.895 161 664 160.105 664 159C664 157.895 664.895 157 666 157ZM2 134C3.10457 134 4 134.895 4 136C4 137.105 3.10457 138 2 138C0.895431 138 0 137.105 0 136C0 134.895 0.895431 134 2 134ZM23 134C24.1046 134 25 134.895 25 136C25 137.105 24.1046 138 23 138C21.8954 138 21 137.105 21 136C21 134.895 21.8954 134 23 134ZM44 134C45.1046 134 46 134.895 46 136C46 137.105 45.1046 138 44 138C42.8954 138 42 137.105 42 136C42 134.895 42.8954 134 44 134ZM65 134C66.1046 134 67 134.895 67 136C67 137.105 66.1046 138 65 138C63.8954 138 63 137.105 63 136C63 134.895 63.8954 134 65 134ZM86 134C87.1046 134 88 134.895 88 136C88 137.105 87.1046 138 86 138C84.8954 138 84 137.105 84 136C84 134.895 84.8954 134 86 134ZM107 134C108.105 134 109 134.895 109 136C109 137.105 108.105 138 107 138C105.895 138 105 137.105 105 136C105 134.895 105.895 134 107 134ZM128 134C129.105 134 130 134.895 130 136C130 137.105 129.105 138 128 138C126.895 138 126 137.105 126 136C126 134.895 126.895 134 128 134ZM149 134C150.105 134 151 134.895 151 136C151 137.105 150.105 138 149 138C147.895 138 147 137.105 147 136C147 134.895 147.895 134 149 134ZM170 134C171.105 134 172 134.895 172 136C172 137.105 171.105 138 170 138C168.895 138 168 137.105 168 136C168 134.895 168.895 134 170 134ZM191 134C192.105 134 193 134.895 193 136C193 137.105 192.105 138 191 138C189.895 138 189 137.105 189 136C189 134.895 189.895 134 191 134ZM212 134C213.105 134 214 134.895 214 136C214 137.105 213.105 138 212 138C210.895 138 210 137.105 210 136C210 134.895 210.895 134 212 134ZM233 134C234.105 134 235 134.895 235 136C235 137.105 234.105 138 233 138C231.895 138 231 137.105 231 136C231 134.895 231.895 134 233 134ZM254 134C255.105 134 256 134.895 256 136C256 137.105 255.105 138 254 138C252.895 138 252 137.105 252 136C252 134.895 252.895 134 254 134ZM274 134C275.105 134 276 134.895 276 136C276 137.105 275.105 138 274 138C272.895 138 272 137.105 272 136C272 134.895 272.895 134 274 134ZM394 134C395.105 134 396 134.895 396 136C396 137.105 395.105 138 394 138C392.895 138 392 137.105 392 136C392 134.895 392.895 134 394 134ZM414 134C415.105 134 416 134.895 416 136C416 137.105 415.105 138 414 138C412.895 138 412 137.105 412 136C412 134.895 412.895 134 414 134ZM435 134C436.105 134 437 134.895 437 136C437 137.105 436.105 138 435 138C433.895 138 433 137.105 433 136C433 134.895 433.895 134 435 134ZM456 134C457.105 134 458 134.895 458 136C458 137.105 457.105 138 456 138C454.895 138 454 137.105 454 136C454 134.895 454.895 134 456 134ZM477 134C478.105 134 479 134.895 479 136C479 137.105 478.105 138 477 138C475.895 138 475 137.105 475 136C475 134.895 475.895 134 477 134ZM498 134C499.105 134 500 134.895 500 136C500 137.105 499.105 138 498 138C496.895 138 496 137.105 496 136C496 134.895 496.895 134 498 134ZM519 134C520.105 134 521 134.895 521 136C521 137.105 520.105 138 519 138C517.895 138 517 137.105 517 136C517 134.895 517.895 134 519 134ZM540 134C541.105 134 542 134.895 542 136C542 137.105 541.105 138 540 138C538.895 138 538 137.105 538 136C538 134.895 538.895 134 540 134ZM561 134C562.105 134 563 134.895 563 136C563 137.105 562.105 138 561 138C559.895 138 559 137.105 559 136C559 134.895 559.895 134 561 134ZM582 134C583.105 134 584 134.895 584 136C584 137.105 583.105 138 582 138C580.895 138 580 137.105 580 136C580 134.895 580.895 134 582 134ZM603 134C604.105 134 605 134.895 605 136C605 137.105 604.105 138 603 138C601.895 138 601 137.105 601 136C601 134.895 601.895 134 603 134ZM624 134C625.105 134 626 134.895 626 136C626 137.105 625.105 138 624 138C622.895 138 622 137.105 622 136C622 134.895 622.895 134 624 134ZM645 134C646.105 134 647 134.895 647 136C647 137.105 646.105 138 645 138C643.895 138 643 137.105 643 136C643 134.895 643.895 134 645 134ZM666 134C667.105 134 668 134.895 668 136C668 137.105 667.105 138 666 138C664.895 138 664 137.105 664 136C664 134.895 664.895 134 666 134ZM2 111C3.10457 111 4 111.895 4 113C4 114.105 3.10457 115 2 115C0.895431 115 0 114.105 0 113C0 111.895 0.895431 111 2 111ZM23 111C24.1046 111 25 111.895 25 113C25 114.105 24.1046 115 23 115C21.8954 115 21 114.105 21 113C21 111.895 21.8954 111 23 111ZM44 111C45.1046 111 46 111.895 46 113C46 114.105 45.1046 115 44 115C42.8954 115 42 114.105 42 113C42 111.895 42.8954 111 44 111ZM65 111C66.1046 111 67 111.895 67 113C67 114.105 66.1046 115 65 115C63.8954 115 63 114.105 63 113C63 111.895 63.8954 111 65 111ZM86 111C87.1046 111 88 111.895 88 113C88 114.105 87.1046 115 86 115C84.8954 115 84 114.105 84 113C84 111.895 84.8954 111 86 111ZM107 111C108.105 111 109 111.895 109 113C109 114.105 108.105 115 107 115C105.895 115 105 114.105 105 113C105 111.895 105.895 111 107 111ZM128 111C129.105 111 130 111.895 130 113C130 114.105 129.105 115 128 115C126.895 115 126 114.105 126 113C126 111.895 126.895 111 128 111ZM149 111C150.105 111 151 111.895 151 113C151 114.105 150.105 115 149 115C147.895 115 147 114.105 147 113C147 111.895 147.895 111 149 111ZM170 111C171.105 111 172 111.895 172 113C172 114.105 171.105 115 170 115C168.895 115 168 114.105 168 113C168 111.895 168.895 111 170 111ZM191 111C192.105 111 193 111.895 193 113C193 114.105 192.105 115 191 115C189.895 115 189 114.105 189 113C189 111.895 189.895 111 191 111ZM212 111C213.105 111 214 111.895 214 113C214 114.105 213.105 115 212 115C210.895 115 210 114.105 210 113C210 111.895 210.895 111 212 111ZM233 111C234.105 111 235 111.895 235 113C235 114.105 234.105 115 233 115C231.895 115 231 114.105 231 113C231 111.895 231.895 111 233 111ZM254 111C255.105 111 256 111.895 256 113C256 114.105 255.105 115 254 115C252.895 115 252 114.105 252 113C252 111.895 252.895 111 254 111ZM274 111C275.105 111 276 111.895 276 113C276 114.105 275.105 115 274 115C272.895 115 272 114.105 272 113C272 111.895 272.895 111 274 111ZM394 111C395.105 111 396 111.895 396 113C396 114.105 395.105 115 394 115C392.895 115 392 114.105 392 113C392 111.895 392.895 111 394 111ZM414 111C415.105 111 416 111.895 416 113C416 114.105 415.105 115 414 115C412.895 115 412 114.105 412 113C412 111.895 412.895 111 414 111ZM435 111C436.105 111 437 111.895 437 113C437 114.105 436.105 115 435 115C433.895 115 433 114.105 433 113C433 111.895 433.895 111 435 111ZM456 111C457.105 111 458 111.895 458 113C458 114.105 457.105 115 456 115C454.895 115 454 114.105 454 113C454 111.895 454.895 111 456 111ZM477 111C478.105 111 479 111.895 479 113C479 114.105 478.105 115 477 115C475.895 115 475 114.105 475 113C475 111.895 475.895 111 477 111ZM498 111C499.105 111 500 111.895 500 113C500 114.105 499.105 115 498 115C496.895 115 496 114.105 496 113C496 111.895 496.895 111 498 111ZM519 111C520.105 111 521 111.895 521 113C521 114.105 520.105 115 519 115C517.895 115 517 114.105 517 113C517 111.895 517.895 111 519 111ZM540 111C541.105 111 542 111.895 542 113C542 114.105 541.105 115 540 115C538.895 115 538 114.105 538 113C538 111.895 538.895 111 540 111ZM561 111C562.105 111 563 111.895 563 113C563 114.105 562.105 115 561 115C559.895 115 559 114.105 559 113C559 111.895 559.895 111 561 111ZM582 111C583.105 111 584 111.895 584 113C584 114.105 583.105 115 582 115C580.895 115 580 114.105 580 113C580 111.895 580.895 111 582 111ZM603 111C604.105 111 605 111.895 605 113C605 114.105 604.105 115 603 115C601.895 115 601 114.105 601 113C601 111.895 601.895 111 603 111ZM624 111C625.105 111 626 111.895 626 113C626 114.105 625.105 115 624 115C622.895 115 622 114.105 622 113C622 111.895 622.895 111 624 111ZM645 111C646.105 111 647 111.895 647 113C647 114.105 646.105 115 645 115C643.895 115 643 114.105 643 113C643 111.895 643.895 111 645 111ZM666 111C667.105 111 668 111.895 668 113C668 114.105 667.105 115 666 115C664.895 115 664 114.105 664 113C664 111.895 664.895 111 666 111ZM2 88C3.10457 88 4 88.8954 4 90C4 91.1046 3.10457 92 2 92C0.895431 92 0 91.1046 0 90C0 88.8954 0.895431 88 2 88ZM23 88C24.1046 88 25 88.8954 25 90C25 91.1046 24.1046 92 23 92C21.8954 92 21 91.1046 21 90C21 88.8954 21.8954 88 23 88ZM44 88C45.1046 88 46 88.8954 46 90C46 91.1046 45.1046 92 44 92C42.8954 92 42 91.1046 42 90C42 88.8954 42.8954 88 44 88ZM65 88C66.1046 88 67 88.8954 67 90C67 91.1046 66.1046 92 65 92C63.8954 92 63 91.1046 63 90C63 88.8954 63.8954 88 65 88ZM86 88C87.1046 88 88 88.8954 88 90C88 91.1046 87.1046 92 86 92C84.8954 92 84 91.1046 84 90C84 88.8954 84.8954 88 86 88ZM107 88C108.105 88 109 88.8954 109 90C109 91.1046 108.105 92 107 92C105.895 92 105 91.1046 105 90C105 88.8954 105.895 88 107 88ZM128 88C129.105 88 130 88.8954 130 90C130 91.1046 129.105 92 128 92C126.895 92 126 91.1046 126 90C126 88.8954 126.895 88 128 88ZM149 88C150.105 88 151 88.8954 151 90C151 91.1046 150.105 92 149 92C147.895 92 147 91.1046 147 90C147 88.8954 147.895 88 149 88ZM519 88C520.105 88 521 88.8954 521 90C521 91.1046 520.105 92 519 92C517.895 92 517 91.1046 517 90C517 88.8954 517.895 88 519 88ZM540 88C541.105 88 542 88.8954 542 90C542 91.1046 541.105 92 540 92C538.895 92 538 91.1046 538 90C538 88.8954 538.895 88 540 88ZM561 88C562.105 88 563 88.8954 563 90C563 91.1046 562.105 92 561 92C559.895 92 559 91.1046 559 90C559 88.8954 559.895 88 561 88ZM582 88C583.105 88 584 88.8954 584 90C584 91.1046 583.105 92 582 92C580.895 92 580 91.1046 580 90C580 88.8954 580.895 88 582 88ZM603 88C604.105 88 605 88.8954 605 90C605 91.1046 604.105 92 603 92C601.895 92 601 91.1046 601 90C601 88.8954 601.895 88 603 88ZM624 88C625.105 88 626 88.8954 626 90C626 91.1046 625.105 92 624 92C622.895 92 622 91.1046 622 90C622 88.8954 622.895 88 624 88ZM645 88C646.105 88 647 88.8954 647 90C647 91.1046 646.105 92 645 92C643.895 92 643 91.1046 643 90C643 88.8954 643.895 88 645 88ZM666 88C667.105 88 668 88.8954 668 90C668 91.1046 667.105 92 666 92C664.895 92 664 91.1046 664 90C664 88.8954 664.895 88 666 88ZM170 86C171.105 86 172 86.8954 172 88C172 89.1046 171.105 90 170 90C168.895 90 168 89.1046 168 88C168 86.8954 168.895 86 170 86ZM191 86C192.105 86 193 86.8954 193 88C193 89.1046 192.105 90 191 90C189.895 90 189 89.1046 189 88C189 86.8954 189.895 86 191 86ZM212 86C213.105 86 214 86.8954 214 88C214 89.1046 213.105 90 212 90C210.895 90 210 89.1046 210 88C210 86.8954 210.895 86 212 86ZM234 86C235.105 86 236 86.8954 236 88C236 89.1046 235.105 90 234 90C232.895 90 232 89.1046 232 88C232 86.8954 232.895 86 234 86ZM434 86C435.105 86 436 86.8954 436 88C436 89.1046 435.105 90 434 90C432.895 90 432 89.1046 432 88C432 86.8954 432.895 86 434 86ZM456 86C457.105 86 458 86.8954 458 88C458 89.1046 457.105 90 456 90C454.895 90 454 89.1046 454 88C454 86.8954 454.895 86 456 86ZM477 86C478.105 86 479 86.8954 479 88C479 89.1046 478.105 90 477 90C475.895 90 475 89.1046 475 88C475 86.8954 475.895 86 477 86ZM498 86C499.105 86 500 86.8954 500 88C500 89.1046 499.105 90 498 90C496.895 90 496 89.1046 496 88C496 86.8954 496.895 86 498 86ZM256 83C257.105 83 258 83.8954 258 85C258 86.1046 257.105 87 256 87C254.895 87 254 86.1046 254 85C254 83.8954 254.895 83 256 83ZM412 83C413.105 83 414 83.8954 414 85C414 86.1046 413.105 87 412 87C410.895 87 410 86.1046 410 85C410 83.8954 410.895 83 412 83ZM284 77C285.105 77 286 77.8954 286 79C286 80.1046 285.105 81 284 81C282.895 81 282 80.1046 282 79C282 77.8954 282.895 77 284 77ZM384 77C385.105 77 386 77.8954 386 79C386 80.1046 385.105 81 384 81C382.895 81 382 80.1046 382 79C382 77.8954 382.895 77 384 77ZM311 76C312.105 76 313 76.8954 313 78C313 79.1046 312.105 80 311 80C309.895 80 309 79.1046 309 78C309 76.8954 309.895 76 311 76ZM334 76C335.105 76 336 76.8954 336 78C336 79.1046 335.105 80 334 80C332.895 80 332 79.1046 332 78C332 76.8954 332.895 76 334 76ZM357 76C358.105 76 359 76.8954 359 78C359 79.1046 358.105 80 357 80C355.895 80 355 79.1046 355 78C355 76.8954 355.895 76 357 76ZM2 65C3.10457 65 4 65.8954 4 67C4 68.1046 3.10457 69 2 69C0.895431 69 0 68.1046 0 67C0 65.8954 0.895431 65 2 65ZM23 65C24.1046 65 25 65.8954 25 67C25 68.1046 24.1046 69 23 69C21.8954 69 21 68.1046 21 67C21 65.8954 21.8954 65 23 65ZM44 65C45.1046 65 46 65.8954 46 67C46 68.1046 45.1046 69 44 69C42.8954 69 42 68.1046 42 67C42 65.8954 42.8954 65 44 65ZM65 65C66.1046 65 67 65.8954 67 67C67 68.1046 66.1046 69 65 69C63.8954 69 63 68.1046 63 67C63 65.8954 63.8954 65 65 65ZM86 65C87.1046 65 88 65.8954 88 67C88 68.1046 87.1046 69 86 69C84.8954 69 84 68.1046 84 67C84 65.8954 84.8954 65 86 65ZM107 65C108.105 65 109 65.8954 109 67C109 68.1046 108.105 69 107 69C105.895 69 105 68.1046 105 67C105 65.8954 105.895 65 107 65ZM128 65C129.105 65 130 65.8954 130 67C130 68.1046 129.105 69 128 69C126.895 69 126 68.1046 126 67C126 65.8954 126.895 65 128 65ZM149 65C150.105 65 151 65.8954 151 67C151 68.1046 150.105 69 149 69C147.895 69 147 68.1046 147 67C147 65.8954 147.895 65 149 65ZM519 65C520.105 65 521 65.8954 521 67C521 68.1046 520.105 69 519 69C517.895 69 517 68.1046 517 67C517 65.8954 517.895 65 519 65ZM540 65C541.105 65 542 65.8954 542 67C542 68.1046 541.105 69 540 69C538.895 69 538 68.1046 538 67C538 65.8954 538.895 65 540 65ZM561 65C562.105 65 563 65.8954 563 67C563 68.1046 562.105 69 561 69C559.895 69 559 68.1046 559 67C559 65.8954 559.895 65 561 65ZM582 65C583.105 65 584 65.8954 584 67C584 68.1046 583.105 69 582 69C580.895 69 580 68.1046 580 67C580 65.8954 580.895 65 582 65ZM603 65C604.105 65 605 65.8954 605 67C605 68.1046 604.105 69 603 69C601.895 69 601 68.1046 601 67C601 65.8954 601.895 65 603 65ZM624 65C625.105 65 626 65.8954 626 67C626 68.1046 625.105 69 624 69C622.895 69 622 68.1046 622 67C622 65.8954 622.895 65 624 65ZM645 65C646.105 65 647 65.8954 647 67C647 68.1046 646.105 69 645 69C643.895 69 643 68.1046 643 67C643 65.8954 643.895 65 645 65ZM666 65C667.105 65 668 65.8954 668 67C668 68.1046 667.105 69 666 69C664.895 69 664 68.1046 664 67C664 65.8954 664.895 65 666 65ZM170 64C171.105 64 172 64.8954 172 66C172 67.1046 171.105 68 170 68C168.895 68 168 67.1046 168 66C168 64.8954 168.895 64 170 64ZM191 64C192.105 64 193 64.8954 193 66C193 67.1046 192.105 68 191 68C189.895 68 189 67.1046 189 66C189 64.8954 189.895 64 191 64ZM477 64C478.105 64 479 64.8954 479 66C479 67.1046 478.105 68 477 68C475.895 68 475 67.1046 475 66C475 64.8954 475.895 64 477 64ZM498 64C499.105 64 500 64.8954 500 66C500 67.1046 499.105 68 498 68C496.895 68 496 67.1046 496 66C496 64.8954 496.895 64 498 64ZM213 63C214.105 63 215 63.8954 215 65C215 66.1046 214.105 67 213 67C211.895 67 211 66.1046 211 65C211 63.8954 211.895 63 213 63ZM455 63C456.105 63 457 63.8954 457 65C457 66.1046 456.105 67 455 67C453.895 67 453 66.1046 453 65C453 63.8954 453.895 63 455 63ZM234 61C235.105 61 236 61.8954 236 63C236 64.1046 235.105 65 234 65C232.895 65 232 64.1046 232 63C232 61.8954 232.895 61 234 61ZM434 61C435.105 61 436 61.8954 436 63C436 64.1046 435.105 65 434 65C432.895 65 432 64.1046 432 63C432 61.8954 432.895 61 434 61ZM260 58C261.105 58 262 58.8954 262 60C262 61.1046 261.105 62 260 62C258.895 62 258 61.1046 258 60C258 58.8954 258.895 58 260 58ZM408 58C409.105 58 410 58.8954 410 60C410 61.1046 409.105 62 408 62C406.895 62 406 61.1046 406 60C406 58.8954 406.895 58 408 58ZM287 56C288.105 56 289 56.8954 289 58C289 59.1046 288.105 60 287 60C285.895 60 285 59.1046 285 58C285 56.8954 285.895 56 287 56ZM311 56C312.105 56 313 56.8954 313 58C313 59.1046 312.105 60 311 60C309.895 60 309 59.1046 309 58C309 56.8954 309.895 56 311 56ZM334 56C335.105 56 336 56.8954 336 58C336 59.1046 335.105 60 334 60C332.895 60 332 59.1046 332 58C332 56.8954 332.895 56 334 56ZM357 56C358.105 56 359 56.8954 359 58C359 59.1046 358.105 60 357 60C355.895 60 355 59.1046 355 58C355 56.8954 355.895 56 357 56ZM381 56C382.105 56 383 56.8954 383 58C383 59.1046 382.105 60 381 60C379.895 60 379 59.1046 379 58C379 56.8954 379.895 56 381 56ZM2 43C3.10457 43 4 43.8954 4 45C4 46.1046 3.10457 47 2 47C0.895431 47 0 46.1046 0 45C0 43.8954 0.895431 43 2 43ZM23 43C24.1046 43 25 43.8954 25 45C25 46.1046 24.1046 47 23 47C21.8954 47 21 46.1046 21 45C21 43.8954 21.8954 43 23 43ZM44 43C45.1046 43 46 43.8954 46 45C46 46.1046 45.1046 47 44 47C42.8954 47 42 46.1046 42 45C42 43.8954 42.8954 43 44 43ZM65 43C66.1046 43 67 43.8954 67 45C67 46.1046 66.1046 47 65 47C63.8954 47 63 46.1046 63 45C63 43.8954 63.8954 43 65 43ZM86 43C87.1046 43 88 43.8954 88 45C88 46.1046 87.1046 47 86 47C84.8954 47 84 46.1046 84 45C84 43.8954 84.8954 43 86 43ZM107 43C108.105 43 109 43.8954 109 45C109 46.1046 108.105 47 107 47C105.895 47 105 46.1046 105 45C105 43.8954 105.895 43 107 43ZM128 43C129.105 43 130 43.8954 130 45C130 46.1046 129.105 47 128 47C126.895 47 126 46.1046 126 45C126 43.8954 126.895 43 128 43ZM149 43C150.105 43 151 43.8954 151 45C151 46.1046 150.105 47 149 47C147.895 47 147 46.1046 147 45C147 43.8954 147.895 43 149 43ZM170 43C171.105 43 172 43.8954 172 45C172 46.1046 171.105 47 170 47C168.895 47 168 46.1046 168 45C168 43.8954 168.895 43 170 43ZM498 43C499.105 43 500 43.8954 500 45C500 46.1046 499.105 47 498 47C496.895 47 496 46.1046 496 45C496 43.8954 496.895 43 498 43ZM519 43C520.105 43 521 43.8954 521 45C521 46.1046 520.105 47 519 47C517.895 47 517 46.1046 517 45C517 43.8954 517.895 43 519 43ZM540 43C541.105 43 542 43.8954 542 45C542 46.1046 541.105 47 540 47C538.895 47 538 46.1046 538 45C538 43.8954 538.895 43 540 43ZM561 43C562.105 43 563 43.8954 563 45C563 46.1046 562.105 47 561 47C559.895 47 559 46.1046 559 45C559 43.8954 559.895 43 561 43ZM582 43C583.105 43 584 43.8954 584 45C584 46.1046 583.105 47 582 47C580.895 47 580 46.1046 580 45C580 43.8954 580.895 43 582 43ZM603 43C604.105 43 605 43.8954 605 45C605 46.1046 604.105 47 603 47C601.895 47 601 46.1046 601 45C601 43.8954 601.895 43 603 43ZM624 43C625.105 43 626 43.8954 626 45C626 46.1046 625.105 47 624 47C622.895 47 622 46.1046 622 45C622 43.8954 622.895 43 624 43ZM645 43C646.105 43 647 43.8954 647 45C647 46.1046 646.105 47 645 47C643.895 47 643 46.1046 643 45C643 43.8954 643.895 43 645 43ZM666 43C667.105 43 668 43.8954 668 45C668 46.1046 667.105 47 666 47C664.895 47 664 46.1046 664 45C664 43.8954 664.895 43 666 43ZM191 41C192.105 41 193 41.8954 193 43C193 44.1046 192.105 45 191 45C189.895 45 189 44.1046 189 43C189 41.8954 189.895 41 191 41ZM477 41C478.105 41 479 41.8954 479 43C479 44.1046 478.105 45 477 45C475.895 45 475 44.1046 475 43C475 41.8954 475.895 41 477 41ZM216 39C217.105 39 218 39.8954 218 41C218 42.1046 217.105 43 216 43C214.895 43 214 42.1046 214 41C214 39.8954 214.895 39 216 39ZM452 39C453.105 39 454 39.8954 454 41C454 42.1046 453.105 43 452 43C450.895 43 450 42.1046 450 41C450 39.8954 450.895 39 452 39ZM238 38C239.105 38 240 38.8954 240 40C240 41.1046 239.105 42 238 42C236.895 42 236 41.1046 236 40C236 38.8954 236.895 38 238 38ZM430 38C431.105 38 432 38.8954 432 40C432 41.1046 431.105 42 430 42C428.895 42 428 41.1046 428 40C428 38.8954 428.895 38 430 38ZM262 35C263.105 35 264 35.8954 264 37C264 38.1046 263.105 39 262 39C260.895 39 260 38.1046 260 37C260 35.8954 260.895 35 262 35ZM287 35C288.105 35 289 35.8954 289 37C289 38.1046 288.105 39 287 39C285.895 39 285 38.1046 285 37C285 35.8954 285.895 35 287 35ZM381 35C382.105 35 383 35.8954 383 37C383 38.1046 382.105 39 381 39C379.895 39 379 38.1046 379 37C379 35.8954 379.895 35 381 35ZM406 35C407.105 35 408 35.8954 408 37C408 38.1046 407.105 39 406 39C404.895 39 404 38.1046 404 37C404 35.8954 404.895 35 406 35ZM311 34C312.105 34 313 34.8954 313 36C313 37.1046 312.105 38 311 38C309.895 38 309 37.1046 309 36C309 34.8954 309.895 34 311 34ZM334 34C335.105 34 336 34.8954 336 36C336 37.1046 335.105 38 334 38C332.895 38 332 37.1046 332 36C332 34.8954 332.895 34 334 34ZM357 34C358.105 34 359 34.8954 359 36C359 37.1046 358.105 38 357 38C355.895 38 355 37.1046 355 36C355 34.8954 355.895 34 357 34ZM2 21C3.10457 21 4 21.8954 4 23C4 24.1046 3.10457 25 2 25C0.895431 25 0 24.1046 0 23C0 21.8954 0.895431 21 2 21ZM23 21C24.1046 21 25 21.8954 25 23C25 24.1046 24.1046 25 23 25C21.8954 25 21 24.1046 21 23C21 21.8954 21.8954 21 23 21ZM44 21C45.1046 21 46 21.8954 46 23C46 24.1046 45.1046 25 44 25C42.8954 25 42 24.1046 42 23C42 21.8954 42.8954 21 44 21ZM65 21C66.1046 21 67 21.8954 67 23C67 24.1046 66.1046 25 65 25C63.8954 25 63 24.1046 63 23C63 21.8954 63.8954 21 65 21ZM86 21C87.1046 21 88 21.8954 88 23C88 24.1046 87.1046 25 86 25C84.8954 25 84 24.1046 84 23C84 21.8954 84.8954 21 86 21ZM107 21C108.105 21 109 21.8954 109 23C109 24.1046 108.105 25 107 25C105.895 25 105 24.1046 105 23C105 21.8954 105.895 21 107 21ZM128 21C129.105 21 130 21.8954 130 23C130 24.1046 129.105 25 128 25C126.895 25 126 24.1046 126 23C126 21.8954 126.895 21 128 21ZM540 21C541.105 21 542 21.8954 542 23C542 24.1046 541.105 25 540 25C538.895 25 538 24.1046 538 23C538 21.8954 538.895 21 540 21ZM561 21C562.105 21 563 21.8954 563 23C563 24.1046 562.105 25 561 25C559.895 25 559 24.1046 559 23C559 21.8954 559.895 21 561 21ZM582 21C583.105 21 584 21.8954 584 23C584 24.1046 583.105 25 582 25C580.895 25 580 24.1046 580 23C580 21.8954 580.895 21 582 21ZM603 21C604.105 21 605 21.8954 605 23C605 24.1046 604.105 25 603 25C601.895 25 601 24.1046 601 23C601 21.8954 601.895 21 603 21ZM624 21C625.105 21 626 21.8954 626 23C626 24.1046 625.105 25 624 25C622.895 25 622 24.1046 622 23C622 21.8954 622.895 21 624 21ZM645 21C646.105 21 647 21.8954 647 23C647 24.1046 646.105 25 645 25C643.895 25 643 24.1046 643 23C643 21.8954 643.895 21 645 21ZM666 21C667.105 21 668 21.8954 668 23C668 24.1046 667.105 25 666 25C664.895 25 664 24.1046 664 23C664 21.8954 664.895 21 666 21ZM149 19C150.105 19 151 19.8954 151 21C151 22.1046 150.105 23 149 23C147.895 23 147 22.1046 147 21C147 19.8954 147.895 19 149 19ZM170 19C171.105 19 172 19.8954 172 21C172 22.1046 171.105 23 170 23C168.895 23 168 22.1046 168 21C168 19.8954 168.895 19 170 19ZM498 19C499.105 19 500 19.8954 500 21C500 22.1046 499.105 23 498 23C496.895 23 496 22.1046 496 21C496 19.8954 496.895 19 498 19ZM519 19C520.105 19 521 19.8954 521 21C521 22.1046 520.105 23 519 23C517.895 23 517 22.1046 517 21C517 19.8954 517.895 19 519 19ZM191 17C192.105 17 193 17.8954 193 19C193 20.1046 192.105 21 191 21C189.895 21 189 20.1046 189 19C189 17.8954 189.895 17 191 17ZM477 17C478.105 17 479 17.8954 479 19C479 20.1046 478.105 21 477 21C475.895 21 475 20.1046 475 19C475 17.8954 475.895 17 477 17ZM240 16C241.105 16 242 16.8954 242 18C242 19.1046 241.105 20 240 20C238.895 20 238 19.1046 238 18C238 16.8954 238.895 16 240 16ZM428 16C429.105 16 430 16.8954 430 18C430 19.1046 429.105 20 428 20C426.895 20 426 19.1046 426 18C426 16.8954 426.895 16 428 16ZM216 15C217.105 15 218 15.8954 218 17C218 18.1046 217.105 19 216 19C214.895 19 214 18.1046 214 17C214 15.8954 214.895 15 216 15ZM452 15C453.105 15 454 15.8954 454 17C454 18.1046 453.105 19 452 19C450.895 19 450 18.1046 450 17C450 15.8954 450.895 15 452 15ZM264 14C265.105 14 266 14.8954 266 16C266 17.1046 265.105 18 264 18C262.895 18 262 17.1046 262 16C262 14.8954 262.895 14 264 14ZM287 14C288.105 14 289 14.8954 289 16C289 17.1046 288.105 18 287 18C285.895 18 285 17.1046 285 16C285 14.8954 285.895 14 287 14ZM381 14C382.105 14 383 14.8954 383 16C383 17.1046 382.105 18 381 18C379.895 18 379 17.1046 379 16C379 14.8954 379.895 14 381 14ZM404 14C405.105 14 406 14.8954 406 16C406 17.1046 405.105 18 404 18C402.895 18 402 17.1046 402 16C402 14.8954 402.895 14 404 14ZM311 12C312.105 12 313 12.8954 313 14C313 15.1046 312.105 16 311 16C309.895 16 309 15.1046 309 14C309 12.8954 309.895 12 311 12ZM334 12C335.105 12 336 12.8954 336 14C336 15.1046 335.105 16 334 16C332.895 16 332 15.1046 332 14C332 12.8954 332.895 12 334 12ZM357 12C358.105 12 359 12.8954 359 14C359 15.1046 358.105 16 357 16C355.895 16 355 15.1046 355 14C355 12.8954 355.895 12 357 12ZM2 -1C3.10457 -1 4 -0.104569 4 1C4 2.10457 3.10457 3 2 3C0.895431 3 0 2.10457 0 1C0 -0.104569 0.895431 -1 2 -1ZM23 -1C24.1046 -1 25 -0.104569 25 1C25 2.10457 24.1046 3 23 3C21.8954 3 21 2.10457 21 1C21 -0.104569 21.8954 -1 23 -1ZM44 -1C45.1046 -1 46 -0.104569 46 1C46 2.10457 45.1046 3 44 3C42.8954 3 42 2.10457 42 1C42 -0.104569 42.8954 -1 44 -1ZM65 -1C66.1046 -1 67 -0.104569 67 1C67 2.10457 66.1046 3 65 3C63.8954 3 63 2.10457 63 1C63 -0.104569 63.8954 -1 65 -1ZM86 -1C87.1046 -1 88 -0.104569 88 1C88 2.10457 87.1046 3 86 3C84.8954 3 84 2.10457 84 1C84 -0.104569 84.8954 -1 86 -1ZM107 -1C108.105 -1 109 -0.104569 109 1C109 2.10457 108.105 3 107 3C105.895 3 105 2.10457 105 1C105 -0.104569 105.895 -1 107 -1ZM128 -1C129.105 -1 130 -0.104569 130 1C130 2.10457 129.105 3 128 3C126.895 3 126 2.10457 126 1C126 -0.104569 126.895 -1 128 -1ZM540 -1C541.105 -1 542 -0.104569 542 1C542 2.10457 541.105 3 540 3C538.895 3 538 2.10457 538 1C538 -0.104569 538.895 -1 540 -1ZM561 -1C562.105 -1 563 -0.104569 563 1C563 2.10457 562.105 3 561 3C559.895 3 559 2.10457 559 1C559 -0.104569 559.895 -1 561 -1ZM582 -1C583.105 -1 584 -0.104569 584 1C584 2.10457 583.105 3 582 3C580.895 3 580 2.10457 580 1C580 -0.104569 580.895 -1 582 -1ZM603 -1C604.105 -1 605 -0.104569 605 1C605 2.10457 604.105 3 603 3C601.895 3 601 2.10457 601 1C601 -0.104569 601.895 -1 603 -1ZM624 -1C625.105 -1 626 -0.104569 626 1C626 2.10457 625.105 3 624 3C622.895 3 622 2.10457 622 1C622 -0.104569 622.895 -1 624 -1ZM645 -1C646.105 -1 647 -0.104569 647 1C647 2.10457 646.105 3 645 3C643.895 3 643 2.10457 643 1C643 -0.104569 643.895 -1 645 -1ZM666 -1C667.105 -1 668 -0.104569 668 1C668 2.10457 667.105 3 666 3C664.895 3 664 2.10457 664 1C664 -0.104569 664.895 -1 666 -1ZM149 -4C150.105 -4 151 -3.10457 151 -2C151 -0.895431 150.105 0 149 0C147.895 0 147 -0.895431 147 -2C147 -3.10457 147.895 -4 149 -4ZM172 -4C173.105 -4 174 -3.10457 174 -2C174 -0.895431 173.105 0 172 0C170.895 0 170 -0.895431 170 -2C170 -3.10457 170.895 -4 172 -4ZM496 -4C497.105 -4 498 -3.10457 498 -2C498 -0.895431 497.105 0 496 0C494.895 0 494 -0.895431 494 -2C494 -3.10457 494.895 -4 496 -4ZM519 -4C520.105 -4 521 -3.10457 521 -2C521 -0.895431 520.105 0 519 0C517.895 0 517 -0.895431 517 -2C517 -3.10457 517.895 -4 519 -4ZM193 -6C194.105 -6 195 -5.10457 195 -4C195 -2.89543 194.105 -2 193 -2C191.895 -2 191 -2.89543 191 -4C191 -5.10457 191.895 -6 193 -6ZM475 -6C476.105 -6 477 -5.10457 477 -4C477 -2.89543 476.105 -2 475 -2C473.895 -2 473 -2.89543 473 -4C473 -5.10457 473.895 -6 475 -6ZM217 -7C218.105 -7 219 -6.10457 219 -5C219 -3.89543 218.105 -3 217 -3C215.895 -3 215 -3.89543 215 -5C215 -6.10457 215.895 -7 217 -7ZM241 -7C242.105 -7 243 -6.10457 243 -5C243 -3.89543 242.105 -3 241 -3C239.895 -3 239 -3.89543 239 -5C239 -6.10457 239.895 -7 241 -7ZM264 -7C265.105 -7 266 -6.10457 266 -5C266 -3.89543 265.105 -3 264 -3C262.895 -3 262 -3.89543 262 -5C262 -6.10457 262.895 -7 264 -7ZM287 -7C288.105 -7 289 -6.10457 289 -5C289 -3.89543 288.105 -3 287 -3C285.895 -3 285 -3.89543 285 -5C285 -6.10457 285.895 -7 287 -7ZM381 -7C382.105 -7 383 -6.10457 383 -5C383 -3.89543 382.105 -3 381 -3C379.895 -3 379 -3.89543 379 -5C379 -6.10457 379.895 -7 381 -7ZM404 -7C405.105 -7 406 -6.10457 406 -5C406 -3.89543 405.105 -3 404 -3C402.895 -3 402 -3.89543 402 -5C402 -6.10457 402.895 -7 404 -7ZM427 -7C428.105 -7 429 -6.10457 429 -5C429 -3.89543 428.105 -3 427 -3C425.895 -3 425 -3.89543 425 -5C425 -6.10457 425.895 -7 427 -7ZM451 -7C452.105 -7 453 -6.10457 453 -5C453 -3.89543 452.105 -3 451 -3C449.895 -3 449 -3.89543 449 -5C449 -6.10457 449.895 -7 451 -7ZM311 -10C312.105 -10 313 -9.10457 313 -8C313 -6.89543 312.105 -6 311 -6C309.895 -6 309 -6.89543 309 -8C309 -9.10457 309.895 -10 311 -10ZM334 -10C335.105 -10 336 -9.10457 336 -8C336 -6.89543 335.105 -6 334 -6C332.895 -6 332 -6.89543 332 -8C332 -9.10457 332.895 -10 334 -10ZM357 -10C358.105 -10 359 -9.10457 359 -8C359 -6.89543 358.105 -6 357 -6C355.895 -6 355 -6.89543 355 -8C355 -9.10457 355.895 -10 357 -10ZM2 -23C3.10457 -23 4 -22.1046 4 -21C4 -19.8954 3.10457 -19 2 -19C0.895431 -19 0 -19.8954 0 -21C0 -22.1046 0.895431 -23 2 -23ZM23 -23C24.1046 -23 25 -22.1046 25 -21C25 -19.8954 24.1046 -19 23 -19C21.8954 -19 21 -19.8954 21 -21C21 -22.1046 21.8954 -23 23 -23ZM44 -23C45.1046 -23 46 -22.1046 46 -21C46 -19.8954 45.1046 -19 44 -19C42.8954 -19 42 -19.8954 42 -21C42 -22.1046 42.8954 -23 44 -23ZM65 -23C66.1046 -23 67 -22.1046 67 -21C67 -19.8954 66.1046 -19 65 -19C63.8954 -19 63 -19.8954 63 -21C63 -22.1046 63.8954 -23 65 -23ZM86 -23C87.1046 -23 88 -22.1046 88 -21C88 -19.8954 87.1046 -19 86 -19C84.8954 -19 84 -19.8954 84 -21C84 -22.1046 84.8954 -23 86 -23ZM107 -23C108.105 -23 109 -22.1046 109 -21C109 -19.8954 108.105 -19 107 -19C105.895 -19 105 -19.8954 105 -21C105 -22.1046 105.895 -23 107 -23ZM128 -23C129.105 -23 130 -22.1046 130 -21C130 -19.8954 129.105 -19 128 -19C126.895 -19 126 -19.8954 126 -21C126 -22.1046 126.895 -23 128 -23ZM149 -23C150.105 -23 151 -22.1046 151 -21C151 -19.8954 150.105 -19 149 -19C147.895 -19 147 -19.8954 147 -21C147 -22.1046 147.895 -23 149 -23ZM519 -23C520.105 -23 521 -22.1046 521 -21C521 -19.8954 520.105 -19 519 -19C517.895 -19 517 -19.8954 517 -21C517 -22.1046 517.895 -23 519 -23ZM540 -23C541.105 -23 542 -22.1046 542 -21C542 -19.8954 541.105 -19 540 -19C538.895 -19 538 -19.8954 538 -21C538 -22.1046 538.895 -23 540 -23ZM561 -23C562.105 -23 563 -22.1046 563 -21C563 -19.8954 562.105 -19 561 -19C559.895 -19 559 -19.8954 559 -21C559 -22.1046 559.895 -23 561 -23ZM582 -23C583.105 -23 584 -22.1046 584 -21C584 -19.8954 583.105 -19 582 -19C580.895 -19 580 -19.8954 580 -21C580 -22.1046 580.895 -23 582 -23ZM603 -23C604.105 -23 605 -22.1046 605 -21C605 -19.8954 604.105 -19 603 -19C601.895 -19 601 -19.8954 601 -21C601 -22.1046 601.895 -23 603 -23ZM624 -23C625.105 -23 626 -22.1046 626 -21C626 -19.8954 625.105 -19 624 -19C622.895 -19 622 -19.8954 622 -21C622 -22.1046 622.895 -23 624 -23ZM645 -23C646.105 -23 647 -22.1046 647 -21C647 -19.8954 646.105 -19 645 -19C643.895 -19 643 -19.8954 643 -21C643 -22.1046 643.895 -23 645 -23ZM666 -23C667.105 -23 668 -22.1046 668 -21C668 -19.8954 667.105 -19 666 -19C664.895 -19 664 -19.8954 664 -21C664 -22.1046 664.895 -23 666 -23ZM173 -27C174.105 -27 175 -26.1046 175 -25C175 -23.8954 174.105 -23 173 -23C171.895 -23 171 -23.8954 171 -25C171 -26.1046 171.895 -27 173 -27ZM495 -27C496.105 -27 497 -26.1046 497 -25C497 -23.8954 496.105 -23 495 -23C493.895 -23 493 -23.8954 493 -25C493 -26.1046 493.895 -27 495 -27ZM218 -28C219.105 -28 220 -27.1046 220 -26C220 -24.8954 219.105 -24 218 -24C216.895 -24 216 -24.8954 216 -26C216 -27.1046 216.895 -28 218 -28ZM242 -28C243.105 -28 244 -27.1046 244 -26C244 -24.8954 243.105 -24 242 -24C240.895 -24 240 -24.8954 240 -26C240 -27.1046 240.895 -28 242 -28ZM264 -28C265.105 -28 266 -27.1046 266 -26C266 -24.8954 265.105 -24 264 -24C262.895 -24 262 -24.8954 262 -26C262 -27.1046 262.895 -28 264 -28ZM287 -28C288.105 -28 289 -27.1046 289 -26C289 -24.8954 288.105 -24 287 -24C285.895 -24 285 -24.8954 285 -26C285 -27.1046 285.895 -28 287 -28ZM381 -28C382.105 -28 383 -27.1046 383 -26C383 -24.8954 382.105 -24 381 -24C379.895 -24 379 -24.8954 379 -26C379 -27.1046 379.895 -28 381 -28ZM404 -28C405.105 -28 406 -27.1046 406 -26C406 -24.8954 405.105 -24 404 -24C402.895 -24 402 -24.8954 402 -26C402 -27.1046 402.895 -28 404 -28ZM426 -28C427.105 -28 428 -27.1046 428 -26C428 -24.8954 427.105 -24 426 -24C424.895 -24 424 -24.8954 424 -26C424 -27.1046 424.895 -28 426 -28ZM450 -28C451.105 -28 452 -27.1046 452 -26C452 -24.8954 451.105 -24 450 -24C448.895 -24 448 -24.8954 448 -26C448 -27.1046 448.895 -28 450 -28ZM194 -29C195.105 -29 196 -28.1046 196 -27C196 -25.8954 195.105 -25 194 -25C192.895 -25 192 -25.8954 192 -27C192 -28.1046 192.895 -29 194 -29ZM474 -29C475.105 -29 476 -28.1046 476 -27C476 -25.8954 475.105 -25 474 -25C472.895 -25 472 -25.8954 472 -27C472 -28.1046 472.895 -29 474 -29ZM311 -32C312.105 -32 313 -31.1046 313 -30C313 -28.8954 312.105 -28 311 -28C309.895 -28 309 -28.8954 309 -30C309 -31.1046 309.895 -32 311 -32ZM334 -32C335.105 -32 336 -31.1046 336 -30C336 -28.8954 335.105 -28 334 -28C332.895 -28 332 -28.8954 332 -30C332 -31.1046 332.895 -32 334 -32ZM357 -32C358.105 -32 359 -31.1046 359 -30C359 -28.8954 358.105 -28 357 -28C355.895 -28 355 -28.8954 355 -30C355 -31.1046 355.895 -32 357 -32Z" fill="url(#paint0_radial_0_6)"/>
</g>
<defs>
<radialGradient id="paint0_radial_0_6" cx="0" cy="0" r="1" gradientUnits="userSpaceOnUse" gradientTransform="translate(334 147) rotate(90) scale(179 334)">
<stop stop-color="#D9D9D9"/>
<stop offset="1" stop-color="#202020"/>
</radialGradient>
<clipPath id="clip0_0_6">
<rect width="668" height="250" fill="white"/>
</clipPath>
</defs>
</svg>
